<?xml version="1.0" encoding="UTF-8" standalone="no"?>
<svg width="2214px" height="2938px" viewBox="0 0 2214 2938" version="1.1" xmlns="http://www.w3.org/2000/svg" xmlns:xlink="http://www.w3.org/1999/xlink" xmlns:sketch="http://www.bohemiancoding.com/sketch/ns">
    <!-- Generator: Sketch 3.5.2 (25235) - http://www.bohemiancoding.com/sketch -->
    <title>library_crop</title>
    <desc>Created with Sketch.</desc>
    <defs></defs>
    <g id="Page-1" stroke="none" stroke-width="1" fill="none" fill-rule="evenodd" sketch:type="MSPage">
        <g id="plan-1" sketch:type="MSLayerGroup" transform="translate(404.000000, 2.000000)">
            <path d="M-562.000009,1869.17851 C-562.000009,1869.17851 -436.281055,1869.17849 -424.193079,1869.17849 C-414.251119,1869.17849 -495.910201,1869.17849 -495.910201,1869.17849 L-495.910201,2371.99999 L-145.640207,2371.99999 M-172.062549,2181.53951 L-303.018216,2181.53951 L-303.018216,2052.82815 L-361.073693,2052.82814 M-361.073693,2015.41185 L-303.018216,2015.41186 L-303.018216,1978.33785 L-182.935353,1978.33785 L-182.935353,1944.99605 L12.1788847,1944.99605 L12.1788847,1978.33785 L12.1788968,1944.99605 L-53.2658359,1944.99605 L-53.2658359,2000.642 L-53.2658359,1944.99605 L-182.935353,1944.99605 L-182.935353,2002.19026 L-182.935353,1978.33785 L-235.954923,1978.33785 L-235.954923,2045.15465 L-182.935353,2045.15465 L-182.935353,2024.9507 L-182.935353,2045.15465 L-171.933275,2045.15465 L-171.933271,2112.2394 L-130.0081,2112.2394 L-130.0081,2045.15465 L-154.823354,2045.15465 L-53.2658359,2045.15465 L-53.2658359,2025.59298 L-53.2658359,2309.7358 L-172.06254,2309.7358 L-172.062549,2181.53951 L-172.062549,2181.53951 M-150.093916,2371.99999 L2169.44152,2371.99999 L2169.44152,1749.28517 L1890.20766,1605.77021 L2126.57607,1727.36756 L2179.15271,1612.76256 L2294.65883,1667.54415 L2371.99999,1506.62163 L2077.46962,1343.81368 L2016.54115,1463.02443 L1870.20181,1392.6023 L1794.04775,1557.13379 L1851.64174,1586.2475 L1539.48567,1428.98176 L1622.07386,1269.77152 L1386.78167,1150.63558 L1336.50074,1248.08126 L1326.00295,1241.9682 L1351.4496,1190.77625 L1309.26393,1169.14533 L1290.21633,1209.58676 L1307.87673,1218.72696 L1305.46205,1223.48276 L1287.83876,1214.78546 L1270.12404,1252.77817 L1293.09474,1264.15586 L1268.27846,1256.71912 L1257.24697,1279.90802 L1297.2394,1300.88111 L1315.94301,1266.16452 L1326.00295,1271.58771 L1301.80616,1315.32021 L1109.58238,1218.72696 L1113.58803,1209.58675 L1124.82255,1214.78546 L1177.47285,1112.01543 L1114.52621,1082.00272 L1066.03114,1187.65816 L1074.1277,1191.76249 L1068.78314,1201.38834 C1068.78314,1201.38834 659.475398,1018.057 612.184593,998.292737 C451.55362,931.160181 74.6952379,756.386843 74.6952379,756.386843 L7.87223987,913.215587 L7.87223877,1678.38829 L-186.723697,1678.38829 L-186.723704,1652.00542 L-253.630064,1652.00545 L-253.630064,1566.06942 L-307.494726,1566.06942 L-307.494734,1652.00542 L-307.494726,1490.82003 M-354.92362,1652.00542 L-354.923624,1440.03163 L-249.179117,1440.03163 L-249.179117,1444.71101 L-297.038645,1444.71101 L-297.038645,1469.94428 L-254.012705,1469.94428 L-254.012705,1461.46949 L-249.179117,1461.46948 L-249.179117,1475.06285 L-297.038645,1475.06288 L-297.038645,1500.80805 L-254.012705,1500.80805 L-254.012705,1492.87464 L-249.179117,1492.87465 L-249.179117,1505.4933 L-297.038645,1505.4933 L-297.038645,1533.25031 L-254.012705,1533.25031 L-254.012705,1522.76118 L-249.179117,1522.76116 L-249.179117,1537.95806 L-297.038645,1537.95808 L-297.038645,1565.44251 L-254.012705,1565.44251 L-254.012705,1554.925 L-249.179117,1554.92502 L-249.179117,1574.2458 L-232.042551,1574.2458 L-232.042551,1579.6056 L-249.179117,1579.6056 L-249.179117,1638.43543 L-187.064554,1638.43543 L-187.064554,1579.6056 L-207.434763,1579.6056 L-207.434763,1574.2458 L-187.064554,1574.2458 L-187.064554,1386.5066 L-255.165839,1386.5066 L-255.165842,1382.45149 L-242.162302,1382.45149 L-242.162302,1320.18037 L-303.399179,1320.18037 L-303.399179,1382.45149 L-282.454141,1382.45149 L-282.454142,1386.5066 L-309.959604,1386.5066 L-309.959601,739.188087 C-309.959601,737.242848 -359.965494,739.188089 -359.965494,739.188089 M-359.965494,702.967478 L-309.9596,702.967484 L-309.9596,627.462859 L-496.910201,564.000009 L-496.910201,1760.37291 L-563.000009,1760.37297 L-424.438074,1760.37293" id="Path-1" stroke="#979797" stroke-width="3" sketch:type="MSShapeGroup" transform="translate(904.499991, 1468.000000) rotate(-90.000000) translate(-904.499991, -1468.000000) "></path>
            <path d="M890.818028,2318.95992 L890.818028,2122.53003 L1115,2122.53003 L1115,2364.46869 L890.818028,2364.46869 L833.428471,2364.46869 L833.428471,2122.53003" id="Path" stroke="#979797" stroke-width="3" sketch:type="MSShapeGroup"></path>
            <path d="M1323,544 C1382.09447,544 1430,496.094468 1430,437 C1430,377.905532 1382.09447,330 1323,330 C1263.90553,330 1216,377.905532 1216,437 C1216,496.094468 1263.90553,544 1323,544 Z" id="ostgotarummet" fill-opacity="0.8" fill="#F6863A" sketch:type="MSShapeGroup"></path>
            <rect id="Rectangle-1" fill-opacity="0.8" fill="#EBE377" sketch:type="MSShapeGroup" x="1300" y="1032" width="290" height="104"></rect>
            <rect id="Rectangle-1-Copy-3" fill-opacity="0.8" fill="#628F2D" sketch:type="MSShapeGroup" x="693" y="1392" width="352" height="104"></rect>
            <circle id="djungelrummet" fill-opacity="0.8" fill="#396EAC" sketch:type="MSShapeGroup" cx="1496" cy="1870" r="115"></circle>
            <g id="ljusgard-framre" transform="translate(938.000000, 1754.000000)" stroke="#979797" stroke-width="2" sketch:type="MSShapeGroup">
                <path d="M203,0.5 L203,186.5" id="Line" stroke-linecap="square"></path>
                <path d="M253,1 L253,244 L-2,244 L-2,1 L150.29908,1 L150.299072,79.6819458 L202.954849,79.6819458" id="Rectangle-4"></path>
            </g>
            <g id="ljusgard-bakre" transform="translate(985.000000, 675.000000)" stroke="#979797" stroke-width="3" sketch:type="MSShapeGroup">
                <path d="M253,0 L253,243 L-2,243 L-2,0 L204.823715,0" id="Rectangle-4"></path>
                <path d="M203.5,1.5 L203.5,187.5" id="Line" stroke-linecap="square"></path>
            </g>
            <g id="stairs" transform="translate(1007.000000, 2703.500000) rotate(-90.000000) translate(-1007.000000, -2703.500000) translate(989.500000, 2649.500000)" fill="#979797" sketch:type="MSShapeGroup">
                <g id="arrow-down" transform="translate(1.048941, 58.078138)">
                    <path d="M0.203817701,25.5885416 L8.63054161,25.5885416 L8.63054161,0 L23.076354,0 L23.076354,25.5885416 L31.5030779,25.5885416 L15.8534478,46.3792317 L0.203817701,25.5885416 Z" id="Shape"></path>
                </g>
                <g id="arrow-up" transform="translate(0.048941, -1.932898)">
                    <path d="M16.8534478,1.59928385 L32.5030779,22.3899739 L24.076354,22.3899739 L24.076354,47.9785156 L9.63054161,47.9785156 L9.63054161,22.3899739 L1.2038177,22.3899739 L16.8534478,1.59928385 L16.8534478,1.59928385 Z" id="Shape"></path>
                </g>
            </g>
            <g id="stairs-copy" transform="translate(1149.000000, 1794.000000)" fill="#979797" sketch:type="MSShapeGroup">
                <g id="arrow-down" transform="translate(-1.951059, 60.078138)">
                    <path d="M1.2038177,25.5885416 L9.63054161,25.5885416 L9.63054161,0 L24.076354,0 L24.076354,25.5885416 L32.5030779,25.5885416 L16.8534478,46.3792317 L1.2038177,25.5885416 Z" id="Shape"></path>
                </g>
                <g id="arrow-up" transform="translate(-1.951059, 0.067102)">
                    <path d="M16.8534478,1.59928385 L32.5030779,22.3899739 L24.076354,22.3899739 L24.076354,47.9785156 L9.63054161,47.9785156 L9.63054161,22.3899739 L1.2038177,22.3899739 L16.8534478,1.59928385 L16.8534478,1.59928385 Z" id="Shape"></path>
                </g>
            </g>
            <g id="stairs-copy-2" transform="translate(846.000000, 2170.000000)" fill="#979797" sketch:type="MSShapeGroup">
                <g id="arrow-down" transform="translate(-1.951059, 60.078138)">
                    <path d="M1.2038177,25.5885416 L9.63054161,25.5885416 L9.63054161,0 L24.076354,0 L24.076354,25.5885416 L32.5030779,25.5885416 L16.8534478,46.3792317 L1.2038177,25.5885416 Z" id="Shape"></path>
                </g>
                <g id="arrow-up" transform="translate(-1.951059, 0.067102)">
                    <path d="M16.8534478,1.59928385 L32.5030779,22.3899739 L24.076354,22.3899739 L24.076354,47.9785156 L9.63054161,47.9785156 L9.63054161,22.3899739 L1.2038177,22.3899739 L16.8534478,1.59928385 L16.8534478,1.59928385 Z" id="Shape"></path>
                </g>
            </g>
            <g id="stairs-copy-3" transform="translate(1197.000000, 713.000000)" fill="#979797" sketch:type="MSShapeGroup">
                <g id="arrow-down" transform="translate(-1.951059, 60.078138)">
                    <path d="M1.2038177,25.5885416 L9.63054161,25.5885416 L9.63054161,0 L24.076354,0 L24.076354,25.5885416 L32.5030779,25.5885416 L16.8534478,46.3792317 L1.2038177,25.5885416 Z" id="Shape"></path>
                </g>
                <g id="arrow-up" transform="translate(-1.951059, 0.067102)">
                    <path d="M16.8534478,1.59928385 L32.5030779,22.3899739 L24.076354,22.3899739 L24.076354,47.9785156 L9.63054161,47.9785156 L9.63054161,22.3899739 L1.2038177,22.3899739 L16.8534478,1.59928385 L16.8534478,1.59928385 Z" id="Shape"></path>
                </g>
            </g>
            <g id="stairs" transform="translate(1324.062444, 324.884000) rotate(56.000000) translate(-1324.062444, -324.884000) translate(1287.562444, 277.884000)" fill="#979797" sketch:type="MSShapeGroup">
                <g id="arrow-down" transform="translate(14.687893, 76.520496) rotate(14.000000) translate(-14.687893, -76.520496) translate(3.372385, 60.425621)">
                    <path d="M0.791080204,16.9025229 L6.32864163,16.9025229 L6.32864163,0 L15.8216041,0 L15.8216041,16.9025229 L21.3591655,16.9025229 L11.0751228,30.6358228 L0.791080204,16.9025229 Z" id="Shape"></path>
                </g>
                <g id="arrow-up" transform="translate(51.939278, 20.995146) rotate(50.000000) translate(-51.939278, -20.995146) translate(40.623770, 4.900270)">
                    <path d="M11.0751228,1.05640768 L21.3591655,14.7897076 L15.8216041,14.7897076 L15.8216041,31.6922305 L6.32864163,31.6922305 L6.32864163,14.7897076 L0.791080204,14.7897076 L11.0751228,1.05640768 L11.0751228,1.05640768 Z" id="Shape"></path>
                </g>
            </g>
            <g id="elevator" transform="translate(1020.000000, 2633.000000)" sketch:type="MSShapeGroup">
                <g id="arrows" transform="translate(36.000000, 0.000000)" fill="#979797">
                    <g id="arrow-down" transform="translate(0.022738, 22.191024)">
                        <path d="M0.559289218,9.45162349 L4.47431374,9.45162349 L4.47431374,0 L11.1857844,0 L11.1857844,9.45162349 L15.1008089,9.45162349 L7.83004905,17.1310676 L0.559289218,9.45162349 Z" id="Shape"></path>
                    </g>
                    <g id="arrow-up" transform="translate(0.022738, 0.024785)">
                        <path d="M7.83004905,0.590726468 L15.1008089,8.27017055 L11.1857844,8.27017055 L11.1857844,17.721794 L4.47431374,17.721794 L4.47431374,8.27017055 L0.559289218,8.27017055 L7.83004905,0.590726468 L7.83004905,0.590726468 Z" id="Shape"></path>
                    </g>
                </g>
                <g transform="translate(-2.000000, 1.000000)">
                    <g id="human" transform="translate(3.500000, 9.000000)" fill="#979797">
                        <g id="man" transform="translate(0.021079, 0.787870)">
                            <path d="M6.95496672,4.72504088 C8.23053131,4.72504088 9.26577214,3.66663172 9.26577214,2.36252044 C9.26577214,1.0572279 8.23053131,0 6.95496672,0 C5.67940212,0 4.64416129,1.0572279 4.64416129,2.36252044 C4.64416129,3.66663172 5.67940212,4.72504088 6.95496672,4.72504088 L6.95496672,4.72504088 Z M13.8619641,13.6825371 C13.4171341,11.5858002 12.6395481,8.14478922 11.5026318,6.72018939 C10.3969114,5.33457115 8.16929497,5.2766894 6.95496672,5.2766894 L6.95496672,5.2766894 C5.74063847,5.2766894 3.51302204,5.33457115 2.40730164,6.72018939 C1.27038538,8.14478922 0.492799352,11.5858002 0.0479693077,13.6825371 C-0.19813147,14.8437159 1.38130404,15.2701509 1.79378281,14.1018845 C2.40730164,12.3618882 2.88101676,10.9006693 3.91856839,9.68869632 C4.46391847,13.1226198 2.45120695,19.0986152 2.33335587,22.4439442 C2.33335587,23.0959998 2.85097629,23.6252044 3.48875858,23.6252044 C3.98096014,23.6252044 4.40152673,23.3109892 4.56790472,22.8668353 C5.09592376,20.9921754 6.95496672,15.7757302 6.95496672,15.7757302 L6.95496672,15.7757302 C6.95496672,15.7757302 8.81400968,20.9921754 9.34202872,22.8668353 C9.50840671,23.3109892 9.9289733,23.6252044 10.4211749,23.6252044 C11.0589571,23.6252044 11.5765776,23.0959998 11.5765776,22.4439442 C11.4587265,19.0986152 9.44601496,13.1226198 9.99136504,9.68987758 C11.0289167,10.9018506 11.5026318,12.3630695 12.1161506,14.1030658 C12.527474,15.2701509 14.1080649,14.8437159 13.8619641,13.6825371 L13.8619641,13.6825371 Z" id="Shape"></path>
                        </g>
                        <g id="man-copy" transform="translate(13.992286, 0.787870)">
                            <path d="M6.95496672,4.72504088 C8.23053131,4.72504088 9.26577214,3.66663172 9.26577214,2.36252044 C9.26577214,1.0572279 8.23053131,0 6.95496672,0 C5.67940212,0 4.64416129,1.0572279 4.64416129,2.36252044 C4.64416129,3.66663172 5.67940212,4.72504088 6.95496672,4.72504088 L6.95496672,4.72504088 Z M13.8619641,13.6825371 C13.4171341,11.5858002 12.6395481,8.14478922 11.5026318,6.72018939 C10.3969114,5.33457115 8.16929497,5.2766894 6.95496672,5.2766894 L6.95496672,5.2766894 C5.74063847,5.2766894 3.51302204,5.33457115 2.40730164,6.72018939 C1.27038538,8.14478922 0.492799352,11.5858002 0.0479693077,13.6825371 C-0.19813147,14.8437159 1.38130404,15.2701509 1.79378281,14.1018845 C2.40730164,12.3618882 2.88101676,10.9006693 3.91856839,9.68869632 C4.46391847,13.1226198 2.45120695,19.0986152 2.33335587,22.4439442 C2.33335587,23.0959998 2.85097629,23.6252044 3.48875858,23.6252044 C3.98096014,23.6252044 4.40152673,23.3109892 4.56790472,22.8668353 C5.09592376,20.9921754 6.95496672,15.7757302 6.95496672,15.7757302 L6.95496672,15.7757302 C6.95496672,15.7757302 8.81400968,20.9921754 9.34202872,22.8668353 C9.50840671,23.3109892 9.9289733,23.6252044 10.4211749,23.6252044 C11.0589571,23.6252044 11.5765776,23.0959998 11.5765776,22.4439442 C11.4587265,19.0986152 9.44601496,13.1226198 9.99136504,9.68987758 C11.0289167,10.9018506 11.5026318,12.3630695 12.1161506,14.1030658 C12.527474,15.2701509 14.1080649,14.8437159 13.8619641,13.6825371 L13.8619641,13.6825371 Z" id="Shape"></path>
                        </g>
                    </g>
                    <rect id="Rectangle-4" stroke="#979797" stroke-width="3" x="0" y="0" width="35" height="38.8690464" rx="5"></rect>
                </g>
            </g>
            <g id="elevator-copy" transform="translate(1099.000000, 1763.000000)" sketch:type="MSShapeGroup">
                <g id="arrows" transform="translate(16.000000, 40.000000)" fill="#979797">
                    <g id="arrow-up" transform="translate(0.022738, 0.024785)">
                        <path d="M7.83004905,0.590726468 L15.1008089,8.27017055 L11.1857844,8.27017055 L11.1857844,17.721794 L4.47431374,17.721794 L4.47431374,8.27017055 L0.559289218,8.27017055 L7.83004905,0.590726468 L7.83004905,0.590726468 Z" id="Shape"></path>
                    </g>
                </g>
                <g id="arrows-copy" transform="translate(7.500000, 49.000000) rotate(-180.000000) translate(-7.500000, -49.000000) translate(-1.000000, 39.500000)" fill="#979797">
                    <g id="arrow-up" transform="translate(0.022738, 0.024785)">
                        <path d="M7.83004905,0.590726468 L15.1008089,8.27017055 L11.1857844,8.27017055 L11.1857844,17.721794 L4.47431374,17.721794 L4.47431374,8.27017055 L0.559289218,8.27017055 L7.83004905,0.590726468 L7.83004905,0.590726468 Z" id="Shape"></path>
                    </g>
                </g>
                <g id="elevator" transform="translate(-2.000000, 0.000000)">
                    <g id="human" transform="translate(5.000000, 15.000000)" fill="#979797">
                        <g id="man" transform="translate(0.017566, 0.013700)">
                            <path d="M5.69943137,3.90303616 C6.7447265,3.90303616 7.59308197,3.02875606 7.59308197,1.95151808 C7.59308197,0.87330434 6.7447265,0 5.69943137,0 C4.65413623,0 3.80578076,0.87330434 3.80578076,1.95151808 C3.80578076,3.02875606 4.65413623,3.90303616 5.69943137,3.90303616 L5.69943137,3.90303616 Z M11.359553,11.3022169 C10.9950253,9.57024466 10.3578118,6.72785857 9.42613575,5.55109317 C8.52002394,4.40652782 6.69454476,4.35871563 5.69943137,4.35871563 L5.69943137,4.35871563 C4.70431798,4.35871563 2.87883879,4.40652782 1.97272698,5.55109317 C1.04105089,6.72785857 0.403837458,9.57024466 0.0393097175,11.3022169 C-0.162364072,12.2613881 1.13194611,12.6136371 1.46996275,11.6486114 C1.97272698,10.2113183 2.36092536,9.00430441 3.21117448,8.00317564 C3.65807602,10.8397072 2.00870634,15.7760721 1.91213016,18.5394217 C1.91213016,19.0780407 2.3363079,19.5151808 2.85895546,19.5151808 C3.26230304,19.5151808 3.60694745,19.2556289 3.74329029,18.8887435 C4.17598946,17.3402139 5.69943137,13.031262 5.69943137,13.031262 L5.69943137,13.031262 C5.69943137,13.031262 7.22287328,17.3402139 7.65557244,18.8887435 C7.79191528,19.2556289 8.13655969,19.5151808 8.53990727,19.5151808 C9.06255483,19.5151808 9.48673257,19.0780407 9.48673257,18.5394217 C9.39015639,15.7760721 7.74078671,10.8397072 8.18768826,8.0041514 C9.03793738,9.00528017 9.42613575,10.2122941 9.92889999,11.6495872 C10.2659698,12.6136371 11.5612268,12.2613881 11.359553,11.3022169 L11.359553,11.3022169 Z" id="Shape"></path>
                        </g>
                        <g id="man-copy" transform="translate(13.286118, 0.013700)">
                            <path d="M5.69943137,3.90303616 C6.7447265,3.90303616 7.59308197,3.02875606 7.59308197,1.95151808 C7.59308197,0.87330434 6.7447265,0 5.69943137,0 C4.65413623,0 3.80578076,0.87330434 3.80578076,1.95151808 C3.80578076,3.02875606 4.65413623,3.90303616 5.69943137,3.90303616 L5.69943137,3.90303616 Z M11.359553,11.3022169 C10.9950253,9.57024466 10.3578118,6.72785857 9.42613575,5.55109317 C8.52002394,4.40652782 6.69454476,4.35871563 5.69943137,4.35871563 L5.69943137,4.35871563 C4.70431798,4.35871563 2.87883879,4.40652782 1.97272698,5.55109317 C1.04105089,6.72785857 0.403837458,9.57024466 0.0393097175,11.3022169 C-0.162364072,12.2613881 1.13194611,12.6136371 1.46996275,11.6486114 C1.97272698,10.2113183 2.36092536,9.00430441 3.21117448,8.00317564 C3.65807602,10.8397072 2.00870634,15.7760721 1.91213016,18.5394217 C1.91213016,19.0780407 2.3363079,19.5151808 2.85895546,19.5151808 C3.26230304,19.5151808 3.60694745,19.2556289 3.74329029,18.8887435 C4.17598946,17.3402139 5.69943137,13.031262 5.69943137,13.031262 L5.69943137,13.031262 C5.69943137,13.031262 7.22287328,17.3402139 7.65557244,18.8887435 C7.79191528,19.2556289 8.13655969,19.5151808 8.53990727,19.5151808 C9.06255483,19.5151808 9.48673257,19.0780407 9.48673257,18.5394217 C9.39015639,15.7760721 7.74078671,10.8397072 8.18768826,8.0041514 C9.03793738,9.00528017 9.42613575,10.2122941 9.92889999,11.6495872 C10.2659698,12.6136371 11.5612268,12.2613881 11.359553,11.3022169 L11.359553,11.3022169 Z" id="Shape"></path>
                        </g>
                    </g>
                    <rect id="Rectangle-4" stroke="#979797" stroke-width="3" x="0" y="0" width="35" height="38.8690464" rx="5"></rect>
                </g>
            </g>
            <path d="M1617.37628,2717.024 L1681,2717.024 L1681,2604 L1708,2604 L1708,2742 L1617.37628,2742 L1617.37628,2717.024 Z" id="Rectangle-5" stroke="#979797" stroke-width="3" sketch:type="MSShapeGroup"></path>
            <path d="M1220.4343,352.863066 C1251.07151,312.442983 1348.30489,266.006313 1431.07953,360.354584 C1410.98793,374.312747 1409.98793,375.312746 1409.98793,375.312746" id="Path-56" stroke="#979797" stroke-width="3" sketch:type="MSShapeGroup"></path>
            <g id="stairs-copy-4" transform="translate(147.000000, 2711.000000)" fill="#979797" sketch:type="MSShapeGroup">
                <g id="arrow-down" transform="translate(0.704289, 38.995321)">
                    <path d="M0.136849028,17.180878 L5.79479222,17.180878 L5.79479222,0 L15.4941234,0 L15.4941234,17.180878 L21.1520666,17.180878 L10.6444578,31.1403413 L0.136849028,17.180878 Z" id="Shape"></path>
                </g>
                <g id="arrow-up" transform="translate(0.032860, -1.297803)">
                    <path d="M11.3158864,1.07380487 L21.8234952,15.0332682 L16.165552,15.0332682 L16.165552,32.2141462 L6.46622079,32.2141462 L6.46622079,15.0332682 L0.808277599,15.0332682 L11.3158864,1.07380487 L11.3158864,1.07380487 Z" id="Shape"></path>
                </g>
            </g>
            <g id="stairs-copy-5" transform="translate(1458.000000, 2711.000000)" fill="#979797" sketch:type="MSShapeGroup">
                <g id="arrow-down" transform="translate(0.704289, 38.995321)">
                    <path d="M0.136849028,17.180878 L5.79479222,17.180878 L5.79479222,0 L15.4941234,0 L15.4941234,17.180878 L21.1520666,17.180878 L10.6444578,31.1403413 L0.136849028,17.180878 Z" id="Shape"></path>
                </g>
                <g id="arrow-up" transform="translate(0.032860, -1.297803)">
                    <path d="M11.3158864,1.07380487 L21.8234952,15.0332682 L16.165552,15.0332682 L16.165552,32.2141462 L6.46622079,32.2141462 L6.46622079,15.0332682 L0.808277599,15.0332682 L11.3158864,1.07380487 L11.3158864,1.07380487 Z" id="Shape"></path>
                </g>
            </g>
        </g>
    </g>
</svg>